<!-- icon666.com - MILLIONS vector ICONS FREE --><svg version="1.1" id="Layer_1" xmlns="http://www.w3.org/2000/svg" xmlns:xlink="http://www.w3.org/1999/xlink" x="0px" y="0px" viewBox="0 0 460 460" style="enable-background:new 0 0 460 460;" xml:space="preserve"><g id="XMLID_2749_"><path id="XMLID_1474_" style="fill:#96914D;" d="M20,250v15c0,5.523-4.477,10-10,10v-10v-15H20z"/><path id="XMLID_1475_" style="fill:#96914D;" d="M30,275v10h10C40,279.477,35.523,275,30,275z"/><path id="XMLID_1369_" style="fill:#96914D;" d="M460,155v30l-30,15v-5l-300.919-58.535c-5.234-0.844-9.081-5.362-9.081-10.664 c0-5.965,4.836-10.801,10.801-10.801H390h30C442.091,115,460,132.909,460,155z"/><path id="XMLID_1482_" style="fill:#848142;" d="M460,155v30l-30,5v-35c0-22.091-17.909-40-40-40h30 C442.091,115,460,132.909,460,155z"/><path id="XMLID_1713_" style="fill:#44411E;" d="M143.419,190c4.75-3.157,10.449-5,16.581-5h0.4v-5.534 c0-7.989,6.716-14.466,15-14.466h5.739v14.466c0-7.989,6.716-14.466,15-14.466h5.739v14.466c0-7.989,6.716-14.466,15-14.466h5.738 v14.466c0-7.989,6.716-14.466,15-14.466h5.739v14.466c0-7.989,6.716-14.466,15-14.466h5.739v14.466c0-7.989,6.716-14.466,15-14.466 h5.739v14.466c0-7.989,6.716-14.466,15-14.466h5.739v14.466c0-7.989,6.716-14.466,15-14.466h5.738v14.466 c0-7.989,6.716-14.466,15-14.466h5.739v14.466c0-7.989,6.716-14.466,15-14.466h5.739v14.466c0-7.989,6.716-14.466,15-14.466h5.738 v14.466c0-7.989,6.716-14.466,15-14.466h5.739v14.466c0-7.989,6.716-14.466,15-14.466H430c0,11.046-8.954,20-20,20h-2v5H143.419z" /><path id="XMLID_1471_" style="fill:#71703A;" d="M460,185v90c0,16.569-13.431,30-30,30H130H10.384C4.649,305,0,300.351,0,294.616 l0,0c0-5.426,4.177-9.937,9.588-10.354L130,275v-60c0-16.569,13.431-30,30-30H460z"/><path id="XMLID_1481_" style="fill:#56542A;" d="M460,154.998V185v30c0,33.137-26.863,60-60,60H130c0-5.523-4.477-10-10-10H80H30 H10c-5.523,0-10-4.477-10-10v-20c0-5.523,4.477-10,10-10h10c2.485,0,4.759,0.907,6.508,2.407C31.959,232.083,38.693,235,46.494,235 h2.758c13.912,0,27.043-5.61,37.402-14.896C90.194,216.93,94.872,215,100,215c14.273,0,27.496-6.923,36.185-18.247 C141.668,189.607,150.296,185,160,185h220c29.125,0,49.774-17.393,49.856-17.458c10.796-8.627,19.307-19.993,24.489-33.047 C457.933,140.491,460,147.502,460,154.998z"/><path id="XMLID_1473_" style="fill:#605B30;" d="M260,275v30H140v-30c0-33.084,26.916-60,60-60S260,241.916,260,275z"/><path id="XMLID_1477_" style="fill:#4C4923;" d="M260,275H140c0-33.084,26.916-60,60-60S260,241.916,260,275z"/><path id="XMLID_2191_" style="fill:#605B30;" d="M400,215c-33.084,0-60,26.916-60,60v30h90c16.569,0,30-13.431,30-30 C460,241.916,433.084,215,400,215z"/><path id="XMLID_2180_" style="fill:#4C4923;" d="M400,215c-33.084,0-60,26.916-60,60h60c22.196,0,41.562-12.061,51.94-29.978 C441.553,227.094,422.168,215,400,215z"/><path id="XMLID_1463_" style="fill:#848142;" d="M230,275v30v10c0,16.569-13.431,30-30,30h-93.82 c-7.434,0-12.269-7.823-8.944-14.472l4.472-8.944C106.79,311.42,117.178,305,128.541,305H160c5.523,0,10-4.477,10-10v-19.376 c0-16.347,12.816-30.164,29.157-30.613C216.11,244.547,230,258.151,230,275z"/><path id="XMLID_1462_" style="fill:#96914D;" d="M202.144,245.079c1.089,3.106,1.689,6.443,1.689,9.921v30v10 c0,16.569-13.431,30-30,30H100l1.708-3.417C106.79,311.42,117.178,305,128.541,305H160c5.523,0,10-4.477,10-10v-19.376 c0-16.347,12.816-30.164,29.157-30.613C200.165,244.984,201.16,245.01,202.144,245.079z"/><path id="XMLID_2172_" style="fill:#848142;" d="M399.157,245.011C382.816,245.46,370,259.277,370,275.624V295 c0,5.523-4.477,10-10,10h-31.459c-11.363,0-21.751,6.42-26.833,16.584l-4.472,8.944c-3.324,6.649,1.51,14.472,8.944,14.472H400 c16.569,0,30-13.431,30-30v-10v-30C430,258.151,416.11,244.547,399.157,245.011z"/><path id="XMLID_2170_" style="fill:#96914D;" d="M402.144,245.079c-0.984-0.07-1.979-0.095-2.987-0.068 C382.816,245.46,370,259.277,370,275.624V295c0,5.523-4.477,10-10,10h-31.459c-11.363,0-21.751,6.42-26.833,16.583L300,325h73.833 c16.569,0,30-13.431,30-30v-10v-30C403.833,251.522,403.232,248.186,402.144,245.079z"/><path id="XMLID_1121_" style="fill:#1E1C08;" d="M110,230c0,2.761-2.239,5-5,5s-5-2.239-5-5s2.239-5,5-5S110,227.239,110,230z"/></g></svg>