<?xml version="1.0" ?><!DOCTYPE svg  PUBLIC '-//W3C//DTD SVG 1.1//EN'
        'http://www.w3.org/Graphics/SVG/1.1/DTD/svg11.dtd'>
<svg xmlns="http://www.w3.org/2000/svg" width="20px" height="20px" viewBox="0 0 512 512" version="1.1"
     xml:space="preserve" style="fill-rule:evenodd;clip-rule:evenodd;stroke-linejoin:round;stroke-miterlimit:2;"><g transform="matrix(1,0,0,1,-1124,-2248)"><g id="Icons"><path d="M1358.55,2440.33L1357.85,2460.91C1357.85,2460.96 1357.85,2461.01 1357.85,2461.07L1348.43,2736.92C1348.36,2738.85 1349.42,2740.65 1351.14,2741.53C1370.39,2751.44 1389.65,2751.64 1408.9,2741.51C1410.6,2740.62 1411.64,2738.84 1411.57,2736.92L1402.15,2461.07C1402.15,2461.01 1402.15,2460.96 1402.15,2460.91L1401.45,2440.33C1441.85,2430.66 1471.92,2394.28 1471.92,2350.93C1471.92,2300.19 1430.74,2259 1380,2259C1329.27,2259 1288.08,2300.19 1288.08,2350.93C1288.08,2394.28 1318.15,2430.66 1358.55,2440.33ZM1392.35,2467.03C1388.31,2467.57 1384.19,2467.85 1380,2467.85C1375.81,2467.85 1371.69,2467.57 1367.65,2467.03L1360.12,2687.52C1359.59,2703.02 1359.01,2718.51 1358.54,2734.01C1358.53,2734.07 1358.65,2734.06 1358.7,2734.09C1358.81,2734.14 1358.93,2734.19 1359.04,2734.24C1359.65,2734.51 1360.26,2734.77 1360.88,2735.03C1363.34,2736.02 1365.86,2736.86 1368.43,2737.5C1371.45,2738.26 1374.54,2738.73 1377.65,2738.9C1380.73,2739.06 1383.83,2738.92 1386.88,2738.48C1389.9,2738.04 1392.87,2737.31 1395.76,2736.33C1397.71,2735.67 1399.61,2734.9 1401.47,2734.04L1392.35,2467.03ZM1391.5,2442.14C1387.74,2442.61 1383.9,2442.85 1380,2442.85C1376.1,2442.85 1372.26,2442.61 1368.5,2442.14L1367.99,2456.97C1371.91,2457.55 1375.92,2457.85 1380,2457.85C1384.08,2457.85 1388.09,2457.55 1392.01,2456.97L1391.5,2442.14ZM1380,2269C1425.22,2269 1461.92,2305.71 1461.92,2350.93C1461.92,2396.14 1425.22,2432.85 1380,2432.85C1334.78,2432.85 1298.08,2396.14 1298.08,2350.93C1298.08,2305.71 1334.78,2269 1380,2269ZM1380,2282.11C1342.02,2282.11 1311.18,2312.94 1311.18,2350.93C1311.18,2388.91 1342.02,2419.74 1380,2419.74C1417.98,2419.74 1448.82,2388.91 1448.82,2350.93C1448.82,2312.94 1417.98,2282.11 1380,2282.11ZM1380,2292.11C1412.46,2292.11 1438.82,2318.46 1438.82,2350.93C1438.82,2383.39 1412.46,2409.74 1380,2409.74C1347.54,2409.74 1321.18,2383.39 1321.18,2350.93C1321.18,2318.46 1347.54,2292.11 1380,2292.11ZM1359.62,2378.83C1351.03,2372.54 1345.44,2362.38 1345.44,2350.93C1345.44,2337.77 1352.81,2326.33 1363.63,2320.49C1366.06,2319.18 1366.97,2316.14 1365.66,2313.72C1364.35,2311.29 1361.31,2310.38 1358.88,2311.69C1344.93,2319.22 1335.44,2333.97 1335.44,2350.93C1335.44,2365.69 1342.64,2378.79 1353.72,2386.9C1355.94,2388.53 1359.07,2388.04 1360.7,2385.82C1362.33,2383.59 1361.85,2380.46 1359.62,2378.83Z"/></g></g></svg>